<?xml version="1.0" standalone="no"?>
<!DOCTYPE svg PUBLIC "-//W3C//DTD SVG 20010904//EN"
 "http://www.w3.org/TR/2001/REC-SVG-20010904/DTD/svg10.dtd">
<svg version="1.0" xmlns="http://www.w3.org/2000/svg"
 width="16.000000pt" height="16.000000pt" viewBox="0 0 16.000000 16.000000"
 preserveAspectRatio="xMidYMid meet">
<metadata>
Created by potrace 1.11, written by Peter Selinger 2001-2013
</metadata>
<g transform="translate(0.000000,16.000000) scale(0.001563,-0.001563)"
fill="#000000" stroke="none">
<path d="M2710 9917 c0 -3 -15 -66 -34 -139 -19 -73 -37 -144 -40 -158 -3 -14
-30 -124 -61 -245 -30 -121 -57 -227 -59 -235 -1 -8 -8 -33 -14 -55 -13 -45
-13 -47 -48 -250 -14 -82 -35 -186 -46 -230 -11 -44 -21 -88 -23 -97 -2 -10
-36 -147 -75 -305 -150 -604 -272 -1099 -276 -1115 -2 -10 -6 -26 -8 -35 -2
-10 -18 -74 -36 -143 -18 -69 -33 -132 -35 -140 -6 -29 -372 -1507 -436 -1765
-28 -110 -52 -207 -54 -215 -2 -8 -17 -73 -35 -145 -17 -71 -33 -137 -35 -145
-7 -33 -195 -788 -205 -825 -9 -36 -17 -69 -24 -100 -1 -5 -5 -19 -9 -30 -3
-11 -8 -31 -11 -45 -2 -14 -18 -81 -36 -150 -17 -69 -33 -132 -35 -140 -9 -43
-137 -563 -150 -610 -9 -30 -64 -255 -125 -500 -60 -245 -130 -528 -155 -630
-26 -102 -48 -194 -51 -205 -2 -11 -28 -119 -59 -240 -201 -809 -178 -707
-157 -701 24 7 144 37 162 41 8 2 44 11 80 20 36 9 72 18 80 20 8 2 134 33
280 70 146 37 273 68 283 70 10 2 27 7 37 10 10 3 27 8 37 10 10 2 59 13 108
25 50 12 97 24 105 26 8 1 132 33 275 69 143 36 269 67 280 70 11 2 40 9 65
16 25 6 53 12 63 14 10 2 27 7 37 10 10 3 27 8 37 10 10 3 38 9 63 16 25 6 52
12 60 14 8 2 161 40 340 85 179 45 332 83 340 85 8 2 161 40 340 85 383 96
325 81 485 119 72 17 715 177 1430 356 715 179 1309 328 1320 330 11 3 85 21
165 41 80 20 152 38 160 39 8 2 62 16 120 30 58 15 112 28 120 30 8 2 242 60
520 130 278 70 512 128 520 130 8 2 98 24 200 50 102 25 208 51 235 56 68 13
207 38 253 45 20 3 208 48 417 101 209 52 390 97 402 99 12 2 33 8 45 13 13 5
25 9 28 9 3 1 25 4 49 8 l44 7 -6 216 c-4 119 -11 272 -17 341 -12 144 -42
398 -55 470 -2 14 -7 43 -10 65 -11 80 -36 221 -50 283 -8 34 -17 76 -20 94
-3 17 -7 34 -9 37 -2 3 -7 22 -10 41 -6 38 -51 214 -90 355 -30 110 -146 466
-156 480 -4 6 -10 23 -14 40 -4 16 -16 48 -27 72 -10 23 -19 45 -19 48 0 9
-92 229 -131 313 -16 35 -29 66 -29 68 0 10 -198 401 -250 494 -218 391 -495
797 -777 1139 -101 123 -113 136 -267 304 -536 585 -1163 1079 -1861 1470
-134 75 -555 287 -569 287 -3 0 -33 13 -68 29 -97 45 -346 143 -508 199 -489
170 -1030 294 -1515 348 -33 3 -67 8 -75 9 -8 2 -64 6 -125 10 -60 4 -113 9
-116 11 -10 6 -479 17 -479 11z"/>
</g>
</svg>
